<?xml version="1.0" encoding="utf-8"?>
<!-- Generator: Adobe Illustrator 16.0.0, SVG Export Plug-In . SVG Version: 6.00 Build 0)  -->
<!DOCTYPE svg PUBLIC "-//W3C//DTD SVG 1.1//EN" "http://www.w3.org/Graphics/SVG/1.1/DTD/svg11.dtd">
<svg version="1.1" id="Layer_1" xmlns="http://www.w3.org/2000/svg" xmlns:xlink="http://www.w3.org/1999/xlink" x="0px" y="0px"
	 width="1000px" height="500px" viewBox="0 0 1000 500" enable-background="new 0 0 1000 500" xml:space="preserve">
<g>
	<g>
		<g>
			<path fill="#010002" d="M503.188,221.101L268.813,17.976c-5.875-5.094-14.594-5.094-20.469,0l-83.562,72.375V61.038
				c0-17.25-14-31.25-31.25-31.25s-31.25,14-31.25,31.25v83.469l-88.375,76.594c-6.5,5.656-7.219,15.531-1.562,22.062
				c5.688,6.5,15.531,7.188,22.062,1.562l224.125-194.25l224.094,194.25c3,2.562,6.594,3.812,10.25,3.812
				c4.406,0,8.687-1.844,11.781-5.375C510.406,236.632,509.656,226.819,503.188,221.101z"/>
			<path fill="#010002" d="M278.313,130.663c-5.719-4.719-12.75-7.125-19.781-7.125s-14.062,2.375-19.812,7.125L82.469,258.757
				c-7.25,5.938-11.438,14.782-11.438,24.188v153.094c0,17.25,14,31.25,31.25,31.25h93.75v-156.25h125v156.25h93.75
				c17.219,0,31.25-14,31.25-31.25V282.945c0-9.438-4.219-18.25-11.469-24.157L278.313,130.663z"/>
		</g>
	</g>
</g>
<rect x="631.959" y="66.688" fill="none" width="313.014" height="376.028"/>
<text transform="matrix(1 0 0 1 631.959 150.688)"><tspan x="0" y="0" font-family="'QuicksandDash-Regular'" font-size="120">HIP</tspan><tspan x="0" y="144" font-family="'QuicksandDash-Regular'" font-size="120">HOP</tspan><tspan x="0" y="288" font-family="'QuicksandDash-Regular'" font-size="120">CXN</tspan></text>
</svg>
